# Blender 4.2.1 LTS
# www.blender.org
mtllib floor.mtl
o 立方体
v -293.257538 -135.754303 224.494141
v -293.770203 -122.882713 227.534988
v -84.422241 -43.176842 -132.169159
v -84.934898 -30.305260 -129.128326
v 74.859558 -169.918228 431.168121
v 74.346901 -157.046677 434.208954
v 283.694855 -77.340790 74.504807
v 283.182159 -64.469215 77.545647
vn -0.8691 0.0807 -0.4880
vn 0.4931 0.2186 -0.8421
vn 0.8691 -0.0807 0.4880
vn -0.4931 -0.2186 0.8421
vn 0.0387 -0.9725 -0.2297
vn -0.0387 0.9725 0.2297
vt 0.625000 0.000000
vt 0.375000 0.250000
vt 0.375000 0.000000
vt 0.625000 0.250000
vt 0.375000 0.500000
vt 0.625000 0.500000
vt 0.375000 0.750000
vt 0.625000 0.750000
vt 0.375000 1.000000
vt 0.125000 0.750000
vt 0.125000 0.500000
vt 0.875000 0.500000
vt 0.625000 1.000000
vt 0.875000 0.750000
s 0
f 2/1/1 3/2/1 1/3/1
f 4/4/2 7/5/2 3/2/2
f 8/6/3 5/7/3 7/5/3
f 6/8/4 1/9/4 5/7/4
f 7/5/5 1/10/5 3/11/5
f 4/12/6 6/8/6 8/6/6
f 2/1/1 4/4/1 3/2/1
f 4/4/2 8/6/2 7/5/2
f 8/6/3 6/8/3 5/7/3
f 6/8/4 2/13/4 1/9/4
f 7/5/5 5/7/5 1/10/5
f 4/12/6 2/14/6 6/8/6
