# Blender 4.2.1 LTS
# www.blender.org
mtllib leftwall.mtl
o 立方体.001
v -103.764999 275.719574 -45.002384
v -92.261353 274.651978 -38.543812
v -91.461166 -33.198257 -117.982559
v -79.957489 -34.265884 -111.523987
v -306.074158 186.035187 300.515198
v -294.570526 184.967560 306.973816
v -293.770325 -122.882660 227.535019
v -282.266663 -123.950272 233.993591
vn -0.0387 0.9725 0.2297
vn 0.4931 0.2186 -0.8421
vn -0.4931 -0.2186 0.8421
vn 0.8691 -0.0807 0.4880
vn -0.8691 0.0807 -0.4880
vn 0.0387 -0.9725 -0.2297
vt 0.625000 0.125000
vt 0.375000 0.250000
vt 0.375000 0.125000
vt 0.625000 0.250000
vt 0.375000 0.500000
vt 0.625000 0.625000
vt 0.875000 0.500000
vt 0.625000 0.500000
vt 0.125000 0.625000
vt 0.125000 0.500000
vt 0.375000 0.625000
vt 0.875000 0.625000
s 0
f 6/1/1 1/2/1 5/3/1
f 2/4/2 3/5/2 1/2/2
f 5/3/3 8/6/3 6/1/3
f 2/7/4 8/6/4 4/8/4
f 3/5/5 5/9/5 1/10/5
f 4/8/6 7/11/6 3/5/6
f 6/1/1 2/4/1 1/2/1
f 2/4/2 4/8/2 3/5/2
f 5/3/3 7/11/3 8/6/3
f 2/7/4 6/12/4 8/6/4
f 3/5/5 7/11/5 5/9/5
f 4/8/6 8/6/6 7/11/6
